<svg xmlns="http://www.w3.org/2000/svg" width="727" height="465" fill="none" viewBox="0 0 727 465"><mask id="b" width="728" height="458" x="0" y="7" maskUnits="userSpaceOnUse" style="mask-type:alpha"><path fill="url(#a)" stroke="#000" stroke-width="2" d="M126 285.722c-96 0-122.5 49.076-125 73.613v78c2 16.4 15.833 24.5 22.5 26.5h673c20 0 28.333-17.333 30-26v-421c-58-29.5-101 21-131.5 61.5s-102 114-151.5 98.5-105 34-133 56S246 285.722 126 285.722Z"/></mask><g mask="url(#b)"><path fill="url(#c)" d="M-14-378.835c0-17.121 13.88-31 31-31s31 13.879 31 31v812c0 17.121-13.88 31-31 31s-31-13.879-31-31z"/></g><circle cx="14" cy="328.165" r="13" fill="#15a36e"/><defs><linearGradient id="a" x1="162.879" x2="209.93" y1="8" y2="497.571" gradientUnits="userSpaceOnUse"><stop offset=".514" stop-color="#cae4c1"/><stop offset="1" stop-color="#eaf1f7"/></linearGradient><linearGradient id="c" x1="-.166" x2="361.415" y1="-409.835" y2="-242.146" gradientUnits="userSpaceOnUse"><stop offset=".514" stop-color="#cae4c1"/><stop offset="1" stop-color="#eaf1f7"/></linearGradient></defs></svg>